<svg xmlns="http://www.w3.org/2000/svg" width="211" height="129" viewBox="0 0 211 129">
    <g fill="none" fill-rule="evenodd">
        <g>
            <g>
                <g>
                    <g>
                        <path fill="#A2C2E2" d="M167.833 80c4.419 0 8 3.582 8 8s-3.581 8-8 8H50.812c-4.419 0-8-3.582-8-8s3.581-8 8-8h117.021zm21.761 0c4.222 0 7.645 3.423 7.645 7.645v.71c0 4.222-3.423 7.645-7.645 7.645-4.222 0-7.645-3.423-7.645-7.645v-.71c0-4.222 3.423-7.645 7.645-7.645zm-21.76-48c4.418 0 8 3.582 8 8s-3.582 8-8 8H203c4.418 0 8 3.582 8 8s-3.582 8-8 8h-43.63c-4.419 0-8 3.582-8 8 0 4.335 3.447 7.865 7.75 7.996l.25.004H8c-4.418 0-8-3.582-8-8 0-4.398 3.548-7.966 7.938-8h25.345c4.418 0 8-3.582 8-8s-3.582-8-8-8h-3.94.063-10.703c-4.418 0-8-3.582-8-8s3.582-8 8-8h149.13z" transform="translate(-497 -244) translate(472 245) translate(25) translate(0 14)"/>
                        <g stroke="#B5CFE8" stroke-linecap="round" stroke-linejoin="round">
                            <g>
                                <g>
                                    <path d="M5.45 0v9.544m4.586-4.772H.862" transform="translate(-497 -244) translate(472 245) translate(25) translate(0 14) translate(24.812) translate(.326 85)"/>
                                </g>
                                <g>
                                    <path d="M4.587 0v9.544m4.587-4.772H0" transform="translate(-497 -244) translate(472 245) translate(25) translate(0 14) translate(24.812) translate(34.188 15)"/>
                                </g>
                                <g>
                                    <path d="M6.116 3.181H0m3.058 3.182V0" transform="translate(-497 -244) translate(472 245) translate(25) translate(0 14) translate(24.812) translate(128.087 .316)"/>
                                </g>
                            </g>
                        </g>
                    </g>
                    <g>
                        <g fill="#FFF" stroke="#6b9fd2">
                            <path stroke-linejoin="round" d="M45.614 9.271v48.111c0 1.927-1.532 3.49-3.421 3.49H3.421c-1.89 0-3.421-1.563-3.421-3.49V5.044c0-1.927 1.532-3.49 3.421-3.49h34.132" transform="translate(-497 -244) translate(472 245) translate(25) translate(83 30)"/>
                            <path d="M36.41 2.372v7.305c0 .552.448 1 1 1h7.49c.553 0 1-.448 1-1 0-.27-.108-.528-.301-.716l-7.49-7.305c-.395-.385-1.029-.377-1.414.018-.182.187-.284.437-.284.698z" transform="translate(-497 -244) translate(472 245) translate(25) translate(83 30)"/>
                        </g>
                        <g transform="translate(-497 -244) translate(472 245) translate(25) translate(83 30) rotate(-38 75.492 -26.594)">
                            <path stroke="#6b9fd2" stroke-linecap="round" stroke-linejoin="round" stroke-width="2" d="M7.651 28.693L7.661 16.403"/>
                            <circle cx="7.651" cy="7.651" r="8.651" stroke="#6b9fd2" stroke-width="2"/>
                            <circle cx="7.651" cy="7.651" r="7.651" fill="#FFF" opacity=".75"/>
                        </g>
                        <path fill="#6b9fd2" fill-rule="nonzero" d="M24.622 38.679c.385 0 .626-.232.723-.694 0-.27.019-.675.058-1.214.057-.675.27-1.287.636-1.836.366-.55.915-1.22 1.647-2.01.887-.944 1.552-1.773 1.995-2.486.444-.713.665-1.56.665-2.544 0-.867-.231-1.691-.694-2.472-.462-.78-1.175-1.411-2.139-1.893-.964-.482-2.149-.723-3.556-.723-1.33 0-2.51.265-3.542.795-1.03.53-1.83 1.243-2.4 2.14-.568.896-.871 1.874-.91 2.934 0 .193.063.347.188.462.125.116.275.174.448.174h1.272c.424 0 .675-.212.752-.636.212-1.214.68-2.106 1.402-2.674.723-.569 1.624-.853 2.703-.853 1.002 0 1.88.26 2.631.78.752.52 1.128 1.224 1.128 2.11 0 .174-.01.3-.03.377-.057.54-.255 1.04-.592 1.503-.337.463-.853 1.05-1.547 1.763-.906.926-1.604 1.764-2.096 2.516-.491.751-.756 1.638-.795 2.66v1.185c0 .192.058.347.174.462.115.116.27.174.462.174h1.417zm.116 4.654c.192 0 .356-.062.491-.188.135-.125.202-.284.202-.477v-1.676c0-.193-.067-.357-.202-.492s-.299-.202-.491-.202h-1.793c-.193 0-.352.067-.477.202s-.188.299-.188.492v1.676c0 .193.063.352.188.477.125.126.284.188.477.188h1.793z" transform="translate(-497 -244) translate(472 245) translate(25) translate(83 30)"/>
                    </g>
                </g>
            </g>
        </g>
    </g>
</svg>
